<svg width="96" height="96" viewBox="0 0 96 96" fill="none" xmlns="http://www.w3.org/2000/svg">
<path d="M34.175 13.3812C32.2198 13.3812 30.4064 13.8189 28.8 14.7437C23.7796 17.6423 21.8687 24.7057 22.8812 33.5C14.7606 37.0202 9.59998 42.2037 9.59998 48C9.59998 53.7962 14.7606 58.9797 22.8812 62.5C21.8692 71.2939 23.7796 78.3577 28.8 81.2562C30.4032 82.181 32.2166 82.6187 34.175 82.6187C38.3434 82.6187 43.1611 80.5267 48 76.9375C52.8393 80.5267 57.6628 82.6187 61.8312 82.6187C63.7864 82.6187 65.5998 82.181 67.2062 81.2562C72.2266 78.3577 74.1375 71.2942 73.125 62.5C81.2425 58.9797 86.4 53.795 86.4 48C86.4 42.2037 81.2393 37.0202 73.1187 33.5C74.1308 24.7061 72.2204 17.6423 67.2 14.7437C65.5968 13.8157 63.7834 13.3812 61.825 13.3812C57.6566 13.3812 52.8389 15.4733 48 19.0625C43.1608 15.4733 38.3419 13.3812 34.175 13.3812ZM34.175 18.9812C36.6762 18.9812 39.9838 20.3112 43.575 22.775C41.4636 24.7676 39.3957 27.0334 37.4062 29.5562C34.1794 30.0189 31.1371 30.6934 28.3187 31.5375C28.3036 31.342 28.2677 31.1369 28.2562 30.9437C27.9138 25.2477 29.1648 21.0017 31.6 19.5937C32.32 19.1777 33.1606 18.9812 34.175 18.9812ZM61.825 18.9812C62.8362 18.9812 63.68 19.1777 64.4 19.5937C66.8352 20.9985 68.0861 25.2477 67.7437 30.9437C67.7321 31.1369 67.6964 31.342 67.6812 31.5375C64.8611 30.6929 61.8165 30.0189 58.5875 29.5562C56.5981 27.0337 54.5363 24.7673 52.425 22.775C56.0159 20.3116 59.325 18.9812 61.825 18.9812ZM48 26.3312C48.8674 27.1208 49.7288 27.9553 50.6 28.8687C49.7367 28.8397 48.878 28.8 48 28.8C47.1241 28.8 46.2675 28.8399 45.4062 28.8687C46.2766 27.9562 47.1333 27.12 48 26.3312ZM48 34.4C50.6518 34.4 53.1652 34.5482 55.55 34.8062C57.0043 36.783 58.4377 38.873 59.7812 41.2C61.069 43.4305 62.2078 45.7135 63.2125 48C62.2076 50.2878 61.0698 52.5744 59.7812 54.8062C58.4418 57.1265 57.0121 59.203 55.5625 61.175C53.0935 61.4451 50.5607 61.6 48 61.6C45.3482 61.6 42.8348 61.4517 40.45 61.1937C38.9956 59.2169 37.5623 57.1332 36.2187 54.8062C34.9302 52.5744 33.7926 50.2878 32.7875 48C33.7919 45.7135 34.9309 43.4305 36.2187 41.2C37.5586 38.8797 38.9875 36.7969 40.4375 34.825C42.9065 34.5548 45.4393 34.4 48 34.4ZM63.1875 36.1312C64.4571 36.4377 65.6776 36.7686 66.825 37.1375C66.565 38.312 66.2471 39.5091 65.8875 40.7187C65.4757 39.946 65.0764 39.1709 64.6312 38.4C64.1732 37.607 63.6648 36.8946 63.1875 36.1312ZM32.8062 36.1375C32.3306 36.8985 31.8253 37.6095 31.3687 38.4C30.9237 39.171 30.5241 39.9459 30.1125 40.7187C29.752 39.5066 29.4289 38.3081 29.1687 37.1312C30.3372 36.7621 31.5546 36.4351 32.8062 36.1375ZM23.9 39.1875C24.5742 42.0343 25.5095 44.9853 26.7125 47.9937C25.5121 50.995 24.5807 53.9406 23.9062 56.7812C18.3335 54.0902 15.2 50.7404 15.2 48C15.2 45.1872 18.246 41.9816 23.35 39.4312C23.5242 39.3441 23.722 39.2726 23.9 39.1875ZM72.0937 39.2187C77.6664 41.9097 80.8 45.2596 80.8 48C80.8 50.8128 77.754 54.0183 72.65 56.5687C72.4758 56.6559 72.278 56.7274 72.1 56.8125C71.4254 53.964 70.4977 51.0102 69.2937 48C70.4927 45.0013 71.4198 42.057 72.0937 39.2187ZM48 41.6C44.464 41.6 41.6 44.464 41.6 48C41.6 51.536 44.464 54.4 48 54.4C51.536 54.4 54.4 51.536 54.4 48C54.4 44.464 51.536 41.6 48 41.6ZM30.1125 55.2812C30.5244 56.0542 30.9297 56.8288 31.375 57.6C31.8325 58.3924 32.3357 59.1059 32.8125 59.8687C31.5429 59.5622 30.3224 59.2313 29.175 58.8625C29.4351 57.6872 29.7525 56.4916 30.1125 55.2812ZM65.8875 55.2875C66.2475 56.4984 66.5712 57.6929 66.8312 58.8687C65.6628 59.2379 64.4453 59.5648 63.1937 59.8625C63.6694 59.1015 64.1747 58.3904 64.6312 57.6C65.0753 56.8306 65.4766 56.0587 65.8875 55.2875ZM28.3187 64.4625C31.1389 65.3071 34.1834 65.981 37.4125 66.4437C39.4025 68.9675 41.4626 71.2382 43.575 73.2312C39.9841 75.6943 36.676 77.025 34.175 77.025C33.1638 77.025 32.32 76.8222 31.6 76.4062C29.1648 75.0014 27.9138 70.7585 28.2562 65.0625C28.268 64.8673 28.3033 64.66 28.3187 64.4625ZM67.6812 64.4625C67.6966 64.66 67.7321 64.8673 67.7437 65.0625C68.0861 70.7585 66.8352 74.9982 64.4 76.4062C63.68 76.8222 62.8394 77.025 61.825 77.025C59.3239 77.025 56.0158 75.6947 52.425 73.2312C54.5375 71.2379 56.6033 68.9678 58.5937 66.4437C61.8205 65.981 64.8629 65.3066 67.6812 64.4625ZM45.4 67.1312C46.2633 67.1602 47.122 67.2 48 67.2C48.878 67.2 49.7367 67.1602 50.6 67.1312C49.7288 68.0447 48.8674 68.8792 48 69.6687C47.1325 68.8792 46.2711 68.0447 45.4 67.1312Z" fill="#61DBFB"/>
</svg>
