<svg width="184" height="184" viewBox="0 0 184 184" fill="none" xmlns="http://www.w3.org/2000/svg">
<path d="M0 34.5C0 28.1391 5.13906 23 11.5 23H149.5C155.861 23 161 28.1391 161 34.5C161 40.8609 155.861 46 149.5 46H11.5C5.13906 46 0 40.8609 0 34.5ZM23 92C23 85.6391 28.1391 80.5 34.5 80.5H172.5C178.861 80.5 184 85.6391 184 92C184 98.3609 178.861 103.5 172.5 103.5H34.5C28.1391 103.5 23 98.3609 23 92ZM161 149.5C161 155.861 155.861 161 149.5 161H11.5C5.13906 161 0 155.861 0 149.5C0 143.139 5.13906 138 11.5 138H149.5C155.861 138 161 143.139 161 149.5Z" fill="white"/>
</svg>
