<svg width="106" height="106" viewBox="0 0 106 106" fill="none" xmlns="http://www.w3.org/2000/svg">
<g clip-path="url(#clip0_620_114)">
<path d="M36.2305 36.2305C38.1766 34.3051 41.3234 34.3051 43.0832 36.2305L52.8137 45.9816L62.7305 36.2305C64.6766 34.3051 67.8234 34.3051 69.5832 36.2305C71.6949 38.1766 71.6949 41.3234 69.5832 43.0832L60.0184 52.8137L69.5832 62.7305C71.6949 64.6766 71.6949 67.8234 69.5832 69.5832C67.8234 71.6949 64.6766 71.6949 62.7305 69.5832L52.8137 60.0184L43.0832 69.5832C41.3234 71.6949 38.1766 71.6949 36.2305 69.5832C34.3051 67.8234 34.3051 64.6766 36.2305 62.7305L45.9816 52.8137L36.2305 43.0832C34.3051 41.3234 34.3051 38.1766 36.2305 36.2305ZM106 53C106 82.2742 82.2742 106 53 106C23.7258 106 0 82.2742 0 53C0 23.7258 23.7258 0 53 0C82.2742 0 106 23.7258 106 53ZM53 9.9375C29.2121 9.9375 9.9375 29.2121 9.9375 53C9.9375 76.7879 29.2121 96.0625 53 96.0625C76.7879 96.0625 96.0625 76.7879 96.0625 53C96.0625 29.2121 76.7879 9.9375 53 9.9375Z" fill="white"/>
</g>
<defs>
<clipPath id="clip0_620_114">
<rect width="106" height="106" fill="white"/>
</clipPath>
</defs>
</svg>
