<svg width="29" height="33" viewBox="0 0 29 33" fill="none" xmlns="http://www.w3.org/2000/svg">
<g clip-path="url(#clip0_62_2)">
<path d="M26.2321 2.01785H2.01155C0.90173 2.01785 0 2.93219 0 4.05463V28.2311C0 29.3535 0.90173 30.2679 2.01155 30.2679H26.2321C27.342 30.2679 28.25 29.3535 28.25 28.2311V4.05463C28.25 2.93219 27.342 2.01785 26.2321 2.01785ZM8.53806 26.2321H4.351V12.7503H8.54436V26.2321H8.53806ZM6.44453 10.909C5.10139 10.909 4.0168 9.81813 4.0168 8.4813C4.0168 7.14447 5.10139 6.05357 6.44453 6.05357C7.78136 6.05357 8.87226 7.14447 8.87226 8.4813C8.87226 9.82444 7.78767 10.909 6.44453 10.909ZM24.2332 26.2321H20.0461V19.6741C20.0461 18.1103 20.0146 16.0987 17.8706 16.0987C15.6888 16.0987 15.3546 17.8013 15.3546 19.5606V26.2321H11.1676V12.7503H15.1844V14.5916H15.2411C15.8023 13.5322 17.1707 12.4161 19.2075 12.4161C23.445 12.4161 24.2332 15.2096 24.2332 18.8417V26.2321Z" fill="white"/>
</g>
<defs>
<clipPath id="clip0_62_2">
<rect width="28.25" height="32.2857" fill="white"/>
</clipPath>
</defs>
</svg>
