<svg width="29" height="33" viewBox="0 0 29 33" fill="none" xmlns="http://www.w3.org/2000/svg">
<g clip-path="url(#clip0_62_7)">
<path d="M25.2232 2.01785H3.02679C1.35575 2.01785 0 3.3736 0 5.04464V27.2411C0 28.9121 1.35575 30.2679 3.02679 30.2679H25.2232C26.8943 30.2679 28.25 28.9121 28.25 27.2411V5.04464C28.25 3.3736 26.8943 2.01785 25.2232 2.01785ZM17.486 26.2132C16.9563 26.3078 16.7608 25.9799 16.7608 25.7088C16.7608 25.3682 16.7734 23.6278 16.7734 22.2216C16.7734 21.2379 16.4455 20.6137 16.0609 20.2858C18.394 20.0272 20.8533 19.7056 20.8533 15.6762C20.8533 14.5286 20.4434 13.9547 19.775 13.217C19.8822 12.9458 20.2416 11.8297 19.6678 10.3793C18.7913 10.1082 16.786 11.5081 16.786 11.5081C15.9537 11.2748 15.052 11.155 14.1628 11.155C13.2737 11.155 12.372 11.2748 11.5396 11.5081C11.5396 11.5081 9.53438 10.1082 8.65787 10.3793C8.08404 11.8234 8.43717 12.9395 8.55067 13.217C7.88225 13.9547 7.56696 14.5286 7.56696 15.6762C7.56696 19.6867 9.91903 20.0272 12.2522 20.2858C11.9495 20.5569 11.6783 21.0235 11.5838 21.692C10.9847 21.9631 9.4524 22.4297 8.53806 20.8155C7.96423 19.8191 6.93008 19.7372 6.93008 19.7372C5.90854 19.7245 6.86071 20.3804 6.86071 20.3804C7.54174 20.6956 8.02098 21.9064 8.02098 21.9064C8.63264 23.7792 11.5585 23.1486 11.5585 23.1486C11.5585 24.0251 11.5711 25.4502 11.5711 25.7088C11.5711 25.9799 11.382 26.3078 10.846 26.2132C6.68415 24.8196 3.77087 20.8596 3.77087 16.2311C3.77087 10.4424 8.19754 6.04726 13.9863 6.04726C19.775 6.04726 24.4665 10.4424 24.4665 16.2311C24.4728 20.8596 21.6478 24.8259 17.486 26.2132ZM11.3 22.3604C11.1802 22.3856 11.0667 22.3352 11.0541 22.2532C11.0415 22.1586 11.1234 22.0766 11.2432 22.0514C11.3631 22.0388 11.4766 22.0892 11.4892 22.1712C11.5081 22.2532 11.4261 22.3352 11.3 22.3604ZM10.7009 22.3036C10.7009 22.3856 10.6064 22.455 10.4802 22.455C10.3415 22.4676 10.2469 22.3982 10.2469 22.3036C10.2469 22.2216 10.3415 22.1523 10.4676 22.1523C10.5874 22.1397 10.7009 22.209 10.7009 22.3036ZM9.83705 22.2343C9.81183 22.3162 9.68571 22.3541 9.57852 22.3162C9.4587 22.291 9.37673 22.1964 9.40195 22.1144C9.42718 22.0325 9.55329 21.9946 9.66049 22.0199C9.78661 22.0577 9.86858 22.1523 9.83705 22.2343ZM9.06144 21.8937C9.00469 21.9631 8.88488 21.9505 8.79029 21.8559C8.6957 21.7739 8.67048 21.6541 8.73354 21.5974C8.79029 21.528 8.9101 21.5406 9.00469 21.6352C9.08666 21.7172 9.11819 21.8433 9.06144 21.8937ZM8.48761 21.3199C8.43086 21.3578 8.32366 21.3199 8.2543 21.2253C8.18493 21.1307 8.18493 21.0235 8.2543 20.9794C8.32366 20.9227 8.43086 20.9668 8.48761 21.0614C8.55698 21.156 8.55698 21.2695 8.48761 21.3199ZM8.07773 20.7083C8.02098 20.765 7.92639 20.7335 7.85703 20.6704C7.78767 20.5884 7.77506 20.4939 7.83181 20.4497C7.88856 20.393 7.98315 20.4245 8.05251 20.4876C8.12187 20.5695 8.13449 20.6641 8.07773 20.7083ZM7.65525 20.2416C7.63002 20.2984 7.54805 20.311 7.47868 20.2668C7.39671 20.229 7.35887 20.1596 7.3841 20.1029C7.40932 20.0651 7.47868 20.0461 7.56066 20.0777C7.64263 20.1218 7.68047 20.1912 7.65525 20.2416Z" fill="white"/>
</g>
<defs>
<clipPath id="clip0_62_7">
<rect width="28.25" height="32.2857" fill="white"/>
</clipPath>
</defs>
</svg>
